<svg width="45" height="40" viewBox="0 0 45 40" fill="none" xmlns="http://www.w3.org/2000/svg">
<path fill-rule="evenodd" clip-rule="evenodd" d="M25.317 7.07156C24.4137 7.07156 23.6815 6.33929 23.6815 5.43601V2.1641C23.6815 1.26001 24.4145 0.52774 25.317 0.52774C26.2211 0.52774 26.9534 1.26001 26.9534 2.1641V5.43601C26.9534 6.3401 26.2219 7.07156 25.317 7.07156ZM36.8869 10.9056C36.2479 11.5446 35.2121 11.5446 34.5731 10.9056C33.9341 10.2674 33.9341 9.23074 34.5731 8.59256L36.8869 6.27874C37.5259 5.63974 38.5617 5.63974 39.2007 6.27874C39.8397 6.91692 39.8397 7.95356 39.2007 8.59256L36.8869 10.9056ZM43.3154 21.7972H40.0426C39.1394 21.7972 38.4063 21.0649 38.4063 20.1608C38.4063 19.2576 39.1394 18.5261 40.0426 18.5261H43.3154C44.2186 18.5261 44.9517 19.2584 44.9517 20.1608C44.9517 21.0649 44.2186 21.7972 43.3154 21.7972ZM36.7715 29.979C36.7715 27.5777 35.9067 25.3816 34.4757 23.6749C34.8946 22.5835 35.1344 21.4004 35.1352 20.1608C35.1352 14.7404 30.7399 10.3443 25.3178 10.3443C22.1621 10.3443 19.3615 11.8391 17.5655 14.1521C16.3931 13.8068 15.1511 13.617 13.8649 13.617C6.63627 13.617 0.775635 19.4768 0.775635 26.7063C0.775635 33.9357 6.63627 39.7956 13.8649 39.7956H26.9542C32.3763 39.7956 36.7715 35.3995 36.7715 29.979ZM4.04754 26.7063C4.04754 32.1284 8.442 36.5228 13.8641 36.5228H26.9534C30.5681 36.5228 33.498 33.5921 33.498 29.979C33.498 26.3643 30.5681 23.4336 26.9534 23.4336C25.6443 23.4336 24.4309 23.8279 23.4082 24.4898C22.401 20.1404 18.5204 16.8897 13.8641 16.8897C8.442 16.8897 4.04754 21.2842 4.04754 26.7063ZM20.6845 15.5389C21.8684 14.3517 23.5072 13.617 25.317 13.617C28.9317 13.617 31.8625 16.5477 31.8625 20.1608C31.8625 20.5887 31.8183 21.006 31.7397 21.4102C30.3235 20.6182 28.692 20.1608 26.9534 20.1608C26.3839 20.1608 25.8333 20.2361 25.29 20.3286C24.1904 18.3641 22.599 16.7138 20.6845 15.5389ZM11.4349 8.59256L13.7479 10.9056C14.3869 11.5446 15.4235 11.5446 16.0617 10.9056C16.7007 10.2674 16.7007 9.23074 16.0617 8.59256L13.7479 6.27874C13.1097 5.63974 12.0731 5.63974 11.4349 6.27874C10.7959 6.91692 10.7959 7.95356 11.4349 8.59256Z" fill="#65AED5"/>
</svg>
