<svg width="208" height="114" viewBox="0 0 208 114" fill="none" xmlns="http://www.w3.org/2000/svg">
<path opacity="0.887835" fill-rule="evenodd" clip-rule="evenodd" d="M40.7655 32.6345C51.7239 12.6389 76.1028 -0.564132 103.671 0.880684C127.443 2.12652 147.718 13.9558 158.499 30.6743C163.061 29.2043 168.058 28.5171 173.261 28.7898C193.267 29.8382 208.751 44.6794 207.847 61.9384C206.942 79.1974 189.991 92.3387 169.986 91.2903C165.199 91.0394 160.671 89.999 156.565 88.3249C144.293 104.7 122.288 115.011 97.7575 113.726C78.7103 112.728 61.9083 104.935 50.4361 93.2766C47.6099 95.5751 43.9455 96.8746 40.0093 96.6683C32.0522 96.2513 25.8428 89.8309 25.5975 82.0591C10.9839 79.3201 0.298868 68.1696 0.966209 55.436C1.70694 41.302 16.1536 30.5698 33.2337 31.465C35.8461 31.6019 38.3688 32.0029 40.7655 32.6345Z" fill="white"/>
</svg>
