<svg width="155" height="101" viewBox="0 0 155 101" fill="none" xmlns="http://www.w3.org/2000/svg">
<path opacity="0.887835" fill-rule="evenodd" clip-rule="evenodd" d="M82.2546 93.2961C101.703 95.684 119.655 85.9891 127.55 70.4312C128.446 70.6835 129.376 70.8715 130.332 70.9889C139.924 72.1668 148.601 65.7894 149.712 56.7446C150.822 47.6998 143.946 39.4128 134.353 38.2349C132.526 38.0105 130.732 38.0603 129.017 38.3504C123.378 24.0494 109.589 13.029 92.3698 10.9148C72.65 8.49347 54.4688 18.4947 46.7501 34.4344C43.0223 31.4879 38.397 29.4755 33.2442 28.8428C18.9918 27.0928 6.10119 36.5615 4.45218 49.9916C2.80317 63.4217 13.0202 75.7276 27.2726 77.4776C30.8037 77.9111 34.2513 77.656 37.465 76.8227C39.1071 83.4242 44.9579 88.7166 52.4782 89.64C56.7271 90.1617 60.7962 89.2013 64.1078 87.1834C69.4636 90.3338 75.6032 92.4794 82.2546 93.2961Z" fill="white"/>
</svg>
